<?xml version="1.0" standalone="no"?>
<!DOCTYPE svg PUBLIC "-//W3C//DTD SVG 20010904//EN"
 "http://www.w3.org/TR/2001/REC-SVG-20010904/DTD/svg10.dtd">
<svg version="1.0" xmlns="http://www.w3.org/2000/svg"
 width="3508.000000pt" height="1224.000000pt" viewBox="0 0 3508.000000 1224.000000"
 preserveAspectRatio="xMidYMid meet">

<g transform="translate(0.000000,1224.000000) scale(0.100000,-0.100000)"
fill="#000000" stroke="none">
<path d="M6340 9560 c0 -1341 1 -1412 18 -1405 14 5 354 132 1110 415 29 10
76 28 105 39 28 11 205 77 392 146 337 125 846 315 1620 604 l400 149 0 48 0
48 -205 77 c-113 43 -925 347 -1805 677 -880 330 -1608 603 -1617 607 -17 7
-18 -64 -18 -1405z"/>
<path d="M11370 8335 l0 -1225 520 0 520 0 0 245 0 245 -195 0 -195 0 0 980 0
980 -325 0 -325 0 0 -1225z"/>
<path d="M13270 8335 l0 -1225 560 0 560 0 0 245 0 245 -235 0 -235 0 0 270 0
270 200 0 200 0 0 235 0 235 -200 0 -200 0 0 230 0 230 213 2 212 3 3 243 2
242 -540 0 -540 0 0 -1225z"/>
<path d="M15460 9544 c0 -9 -29 -235 -66 -502 -36 -268 -83 -617 -104 -777
-22 -159 -64 -475 -95 -701 -30 -226 -55 -421 -55 -432 l0 -22 329 0 330 0 5
43 c3 23 10 98 16 167 6 69 13 149 16 178 l6 52 119 0 c107 0 119 -2 119 -17
0 -10 7 -99 15 -198 8 -99 15 -190 15 -202 l0 -23 331 0 331 0 -6 33 c-3 17
-28 181 -55 362 -28 182 -109 717 -181 1189 -71 473 -130 861 -130 863 0 2
-211 3 -470 3 -423 0 -470 -2 -470 -16z m514 -669 c11 -146 54 -610 71 -755 8
-69 15 -128 15 -132 0 -5 -52 -8 -116 -8 l-115 0 5 43 c3 23 10 92 16 152 7
61 30 254 52 430 22 176 42 340 46 365 7 63 18 27 26 -95z"/>
<path d="M17580 8336 l0 -1226 448 0 c473 0 656 9 750 36 117 33 213 108 252
198 43 96 45 144 45 966 0 715 -2 792 -18 860 -51 220 -203 333 -494 371 -43
5 -282 13 -530 16 l-453 6 0 -1227z m799 795 c12 -7 30 -29 39 -49 15 -33 17
-104 20 -651 3 -606 -3 -788 -30 -846 -15 -34 -53 -53 -122 -61 l-56 -7 0 820
0 819 63 -6 c34 -4 73 -13 86 -19z"/>
<path d="M20030 8335 l0 -1225 560 0 560 0 0 245 0 245 -235 0 -235 0 0 270 0
270 200 0 200 0 0 235 0 235 -200 0 -200 0 0 233 0 232 212 0 213 0 3 243 2
242 -540 0 -540 0 0 -1225z"/>
<path d="M22040 8336 l0 -1226 325 0 325 0 0 556 0 557 54 -6 c76 -8 112 -29
127 -75 9 -27 14 -175 16 -534 l4 -498 301 0 300 0 -5 488 c-5 546 -5 542 -76
637 -46 61 -116 107 -201 131 -30 9 -58 19 -63 23 -4 4 26 13 67 19 86 15 169
60 203 111 80 118 94 489 28 699 -44 141 -143 245 -275 291 -99 34 -222 43
-682 48 l-448 5 0 -1226z m793 790 c45 -30 52 -66 51 -256 0 -108 -4 -185 -12
-202 -16 -39 -53 -59 -122 -65 l-60 -6 0 278 0 278 59 -6 c32 -2 70 -12 84
-21z"/>
<path d="M2220 8540 c-9 -6 -10 -10 -3 -10 6 0 15 5 18 10 8 12 4 12 -15 0z"/>
<path d="M9630 8345 c-36 -7 -150 -47 -255 -87 -104 -41 -239 -94 -300 -118
-360 -139 -1114 -433 -1190 -463 -282 -112 -1401 -544 -1764 -683 -215 -82
-264 -107 -309 -159 -69 -77 -66 -5 -58 -1460 6 -1097 10 -1327 23 -1415 8
-58 16 -107 18 -109 2 -2 46 6 97 17 63 14 236 77 533 195 242 96 514 204 605
240 91 36 419 166 730 290 806 320 1112 441 1590 627 274 107 321 130 365 185
69 86 65 -4 65 1451 0 1348 0 1328 -35 1482 -6 26 -19 26 -115 7z"/>
<path d="M4238 7823 c7 -3 16 -2 19 1 4 3 -2 6 -13 5 -11 0 -14 -3 -6 -6z"/>
<path d="M3765 7460 c-3 -6 1 -7 9 -4 18 7 21 14 7 14 -6 0 -13 -4 -16 -10z"/>
<path d="M30016 7434 c-4 -9 -4 -19 -1 -22 3 -3 5 0 5 7 0 7 4 9 10 6 6 -3 7
1 4 9 -8 20 -10 20 -18 0z"/>
<path d="M28716 7348 c3 -5 10 -6 15 -3 13 9 11 12 -6 12 -8 0 -12 -4 -9 -9z"/>
<path d="M28746 7333 c-6 -14 -5 -15 5 -6 7 7 10 15 7 18 -3 3 -9 -2 -12 -12z"/>
<path d="M29959 7333 c-13 -16 -12 -17 4 -4 16 13 21 21 13 21 -2 0 -10 -8
-17 -17z"/>
<path d="M29755 7180 c-3 -6 1 -7 9 -4 18 7 21 14 7 14 -6 0 -13 -4 -16 -10z"/>
<path d="M4393 6865 c0 -8 4 -12 9 -9 5 3 6 10 3 15 -9 13 -12 11 -12 -6z"/>
<path d="M11735 6395 c-245 -44 -454 -223 -511 -438 -16 -61 -18 -202 -4 -278
18 -92 63 -174 139 -250 99 -99 179 -134 473 -208 256 -64 339 -93 392 -137
125 -105 134 -342 18 -468 -76 -81 -175 -116 -343 -123 -144 -6 -228 8 -364
60 -108 41 -286 149 -310 187 -3 5 -13 10 -21 10 -12 0 -14 -29 -14 -169 l0
-169 78 -32 c191 -80 329 -113 517 -125 262 -16 458 39 618 173 136 113 217
311 204 495 -16 222 -129 376 -336 456 -43 17 -185 57 -316 90 -131 33 -260
72 -289 87 -106 55 -164 141 -174 260 -13 162 91 292 272 341 74 19 237 22
321 4 120 -25 312 -115 397 -186 16 -14 34 -25 39 -25 5 0 9 71 9 164 l0 165
-82 31 c-227 88 -512 122 -713 85z"/>
<path d="M14333 6395 c-372 -67 -613 -319 -708 -740 -25 -108 -31 -442 -11
-575 76 -496 369 -787 831 -825 88 -7 246 7 340 31 261 67 476 270 575 541 60
168 74 264 74 508 0 186 -3 235 -21 315 -95 429 -335 679 -717 745 -106 18
-263 18 -363 0z m347 -237 c246 -61 403 -260 461 -588 19 -109 17 -393 -5
-503 -49 -255 -171 -436 -349 -521 -96 -46 -173 -60 -304 -54 -163 8 -279 57
-386 165 -137 139 -202 324 -213 613 -21 516 176 850 531 900 70 10 199 4 265
-12z"/>
<path d="M26505 6400 c-209 -33 -411 -146 -529 -297 -86 -109 -164 -282 -201
-448 -25 -108 -31 -442 -11 -575 27 -177 92 -353 176 -475 76 -111 239 -241
358 -285 296 -111 647 -81 882 75 265 176 409 503 410 930 1 571 -235 941
-671 1055 -96 25 -313 35 -414 20z m340 -246 c228 -59 381 -253 441 -561 24
-122 24 -404 0 -526 -61 -310 -218 -501 -466 -563 -90 -23 -272 -15 -354 14
-216 78 -353 255 -412 532 -27 127 -26 439 3 570 70 323 244 512 508 550 76
11 202 4 280 -16z"/>
<path d="M31925 6404 c-76 -13 -157 -39 -234 -76 -68 -32 -101 -57 -165 -122
-122 -123 -166 -225 -166 -391 0 -171 51 -298 161 -399 100 -93 193 -131 521
-210 280 -69 346 -104 399 -212 26 -52 31 -74 32 -140 1 -114 -22 -175 -92
-245 -86 -86 -191 -119 -375 -119 -194 0 -394 70 -571 200 -28 20 -56 44 -64
53 -7 10 -17 17 -22 17 -5 0 -9 -78 -9 -174 l0 -174 78 -32 c185 -78 284 -103
463 -121 319 -31 558 42 723 222 159 172 201 450 100 657 -54 111 -186 213
-334 261 -36 11 -163 45 -283 75 -120 30 -242 67 -270 81 -120 62 -171 147
-171 285 0 101 14 139 75 205 120 130 364 168 599 94 82 -26 221 -97 290 -149
30 -22 57 -40 62 -40 4 0 8 74 8 163 l0 164 -27 13 c-79 36 -209 75 -318 96
-79 15 -352 27 -410 18z"/>
<path d="M16560 5340 c0 -566 0 -1033 0 -1037 0 -5 270 -9 600 -11 l600 -2 0
125 0 125 -465 0 -465 0 0 915 0 915 -135 0 -135 0 0 -1030z"/>
<path d="M18770 5673 c0 -406 4 -736 10 -788 23 -203 74 -320 191 -436 114
-114 230 -165 434 -190 155 -19 365 6 480 57 130 57 243 159 305 275 17 32 43
107 57 166 l27 108 3 753 4 752 -135 0 -135 0 -4 -732 c-3 -495 -8 -752 -16
-792 -7 -32 -27 -91 -45 -130 -71 -154 -206 -226 -426 -226 -252 0 -397 105
-456 331 -15 57 -18 150 -21 807 l-4 742 -135 0 -134 0 0 -697z"/>
<path d="M21280 6250 l0 -120 350 -2 350 -3 0 -917 0 -918 140 0 140 0 0 920
0 920 350 0 350 0 0 120 0 120 -840 0 -840 0 0 -120z"/>
<path d="M23900 6270 l0 -100 135 0 135 0 0 -835 0 -835 -135 0 -135 0 0 -105
0 -105 405 0 405 0 0 105 0 105 -135 0 -135 0 2 833 3 832 133 3 132 3 0 99 0
100 -405 0 -405 0 0 -100z"/>
<path d="M28720 5340 c0 -566 0 -1033 0 -1037 0 -5 56 -9 125 -11 l125 -3 0
898 c0 513 4 893 9 888 5 -6 49 -89 98 -185 184 -357 649 -1260 734 -1425 l88
-170 155 -3 156 -3 0 1041 0 1040 -130 0 -130 0 -2 -822 -3 -821 -114 224
c-63 123 -142 278 -176 344 -63 120 -224 436 -435 853 l-113 222 -194 0 -193
0 0 -1030z"/>
<path d="M4157 4189 c7 -7 15 -10 18 -7 3 3 -2 9 -12 12 -14 6 -15 5 -6 -5z"/>
<path d="M1300 3155 l0 -115 15745 0 15745 0 0 115 0 115 -15745 0 -15745 0 0
-115z"/>
<path d="M1620 2599 c-293 -43 -461 -330 -396 -673 21 -107 66 -193 135 -259
101 -96 196 -131 366 -131 117 0 179 13 288 61 l57 26 0 118 c0 66 -4 119 -8
119 -5 0 -32 -18 -62 -40 -85 -63 -136 -84 -217 -88 -128 -7 -214 43 -274 158
-21 40 -24 58 -24 175 0 121 2 134 27 185 55 112 130 160 249 160 80 0 146
-25 233 -89 30 -23 60 -41 66 -41 6 0 10 43 10 120 l0 120 -39 19 c-102 53
-284 79 -411 60z"/>
<path d="M2600 2604 c-182 -33 -304 -116 -372 -254 -77 -159 -75 -407 4 -563
82 -164 233 -250 438 -251 157 -1 254 33 352 123 96 88 144 202 154 371 18
276 -118 497 -341 556 -54 14 -195 25 -235 18z m163 -209 c52 -21 104 -89 127
-163 36 -115 23 -314 -26 -390 -50 -80 -105 -112 -191 -112 -95 0 -160 47
-204 145 -43 97 -37 320 11 415 22 42 75 95 110 109 38 15 133 13 173 -4z"/>
<path d="M4735 2599 c-248 -41 -380 -214 -319 -418 19 -65 85 -135 159 -170
28 -13 110 -38 182 -56 138 -34 174 -50 194 -86 14 -27 6 -84 -15 -104 -46
-46 -192 -60 -297 -29 -65 20 -180 76 -198 98 -8 9 -22 16 -32 16 -17 0 -19
-9 -19 -114 0 -79 4 -117 13 -123 25 -21 175 -63 257 -74 221 -28 409 30 507
159 39 52 53 97 53 178 0 170 -85 247 -347 313 -68 17 -138 39 -158 48 -53 25
-66 90 -27 135 51 59 227 65 345 10 37 -17 80 -40 96 -51 16 -12 34 -21 40
-21 7 0 11 38 11 114 l0 114 -42 16 c-77 27 -112 35 -198 46 -96 11 -133 11
-205 -1z"/>
<path d="M10360 2604 c-132 -20 -211 -51 -291 -117 -108 -88 -168 -218 -176
-382 -9 -172 33 -309 124 -406 105 -114 227 -162 408 -163 116 0 177 10 313
50 l82 25 0 254 0 255 -225 0 -225 0 0 -95 0 -95 100 0 100 0 0 -105 0 -105
-82 0 c-144 1 -243 56 -295 165 -26 56 -28 69 -28 181 0 119 1 122 35 189 59
115 146 160 295 153 65 -3 93 -9 148 -36 38 -17 86 -45 107 -62 64 -50 68 -46
69 83 2 88 -1 117 -12 126 -8 6 -51 25 -95 41 -107 39 -257 58 -352 44z"/>
<path d="M27079 2599 c-118 -17 -231 -73 -306 -151 -79 -83 -133 -236 -133
-379 0 -219 94 -390 260 -473 168 -84 355 -84 623 1 l47 15 0 254 0 254 -225
0 -225 0 0 -95 0 -95 100 0 100 0 0 -106 0 -107 -97 5 c-115 6 -176 31 -236
97 -62 69 -71 100 -72 246 0 125 1 132 30 188 31 63 63 95 129 130 35 19 57
22 146 22 97 0 110 -2 171 -31 36 -17 85 -45 109 -63 68 -49 70 -47 70 83 0
85 -4 116 -14 125 -29 24 -178 71 -257 81 -94 11 -139 11 -220 -1z"/>
<path d="M3340 2070 l0 -520 120 0 120 0 0 363 0 362 23 -40 c44 -74 152 -269
268 -477 l114 -208 123 0 122 0 0 520 0 520 -115 0 -115 0 0 -296 c0 -173 -4
-293 -9 -290 -8 5 -30 43 -96 161 -131 234 -218 389 -228 405 -11 18 -24 20
-169 20 l-158 0 0 -520z"/>
<path d="M5362 2198 l3 -393 29 -63 c54 -117 153 -181 315 -203 187 -26 374
33 448 143 65 95 66 105 71 526 l3 382 -130 0 -130 0 -3 -372 c-3 -362 -4
-374 -25 -414 -31 -58 -75 -77 -168 -72 -82 4 -103 16 -139 83 -20 38 -21 54
-24 408 l-4 367 -124 0 -125 0 3 -392z"/>
<path d="M6430 2070 l0 -520 343 0 c189 0 346 2 348 4 2 2 3 48 1 100 l-3 97
-215 -3 -214 -3 0 423 0 422 -130 0 -130 0 0 -520z"/>
<path d="M7152 2493 l3 -98 152 0 153 0 0 -422 0 -423 130 0 130 0 0 423 0
422 152 0 153 0 3 98 3 97 -441 0 -441 0 3 -97z"/>
<path d="M8100 2499 l0 -91 75 4 75 3 0 -345 0 -345 -75 2 -75 2 0 -89 0 -90
280 0 280 0 0 85 c0 82 -1 85 -25 91 -13 3 -47 4 -75 2 l-50 -3 0 345 0 345
72 0 73 0 3 88 3 87 -281 0 -280 0 0 -91z"/>
<path d="M8840 2070 l0 -520 120 0 120 0 2 360 3 360 200 -360 200 -360 122 0
123 0 0 520 0 520 -115 0 -115 0 0 -296 c0 -173 -4 -293 -9 -290 -5 3 -48 77
-96 163 -48 87 -122 218 -163 291 l-75 132 -159 0 -158 0 0 -520z"/>
<path d="M22320 2070 l0 -520 120 0 120 0 0 347 c0 190 3 343 7 340 3 -4 47
-103 98 -219 l92 -213 89 -3 89 -2 73 172 c40 95 83 196 96 223 l24 50 1 -347
1 -348 124 0 c104 0 125 3 130 16 9 24 7 997 -2 1012 -7 9 -44 12 -152 10
l-143 -3 -103 -225 c-57 -124 -108 -238 -114 -254 -6 -18 -14 -26 -19 -20 -5
5 -53 106 -106 224 -53 118 -104 230 -112 248 l-15 32 -149 0 -149 0 0 -520z"/>
<path d="M23850 2587 c0 -5 -331 -981 -347 -1024 -4 -10 25 -13 124 -13 l129
0 34 105 34 105 166 0 167 0 32 -105 32 -105 130 0 c74 0 129 4 129 9 0 6 -36
117 -81 248 -44 131 -122 360 -172 508 l-92 270 -142 3 c-79 1 -143 1 -143 -1z
m198 -474 c27 -89 47 -165 44 -168 -3 -3 -52 -5 -109 -5 -81 0 -104 3 -101 13
20 81 104 335 109 329 4 -4 29 -80 57 -169z"/>
<path d="M24600 2070 l0 -520 120 0 120 0 2 360 3 360 200 -360 200 -360 122
0 123 0 0 520 0 520 -115 0 -115 0 0 -296 c0 -173 -4 -293 -9 -290 -5 3 -48
77 -96 163 -48 87 -122 218 -163 291 l-75 132 -159 0 -158 0 0 -520z"/>
<path d="M25950 2587 c0 -4 -219 -650 -300 -886 -28 -79 -50 -146 -50 -148 0
-1 58 -3 128 -3 l129 0 33 105 32 105 168 0 167 0 32 -105 32 -105 133 0 132
0 -89 263 c-49 144 -128 378 -175 519 l-87 258 -142 0 c-79 0 -143 -2 -143 -3z
m194 -460 c27 -89 51 -168 54 -174 3 -10 -23 -13 -108 -13 -85 0 -111 3 -108
13 3 6 27 85 53 175 27 89 51 162 54 162 3 0 28 -73 55 -163z"/>
<path d="M27770 2070 l0 -520 350 0 350 0 0 101 0 100 -220 -3 -220 -3 0 138
0 137 205 0 205 0 0 95 0 95 -205 0 -205 0 0 93 0 92 217 0 218 0 3 98 3 97
-351 0 -350 0 0 -520z"/>
<path d="M28660 2070 l0 -520 120 0 120 0 0 347 c0 190 3 343 7 340 3 -4 48
-103 98 -220 l92 -212 89 -3 89 -2 95 222 95 223 3 -347 2 -348 124 0 c100 0
125 3 130 15 7 20 8 969 0 1000 l-6 26 -146 -3 -146 -3 -113 -249 c-62 -138
-116 -252 -118 -254 -3 -3 -16 21 -31 54 -26 59 -104 230 -171 377 l-36 77
-149 0 -148 0 0 -520z"/>
<path d="M29950 2070 l0 -520 350 0 351 0 -3 98 -3 97 -218 0 -217 0 0 138 0
137 205 0 205 0 0 95 0 95 -205 0 -205 0 0 93 0 92 220 -3 220 -3 0 101 0 100
-350 0 -350 0 0 -520z"/>
<path d="M30830 2070 l0 -520 120 0 120 0 2 359 3 359 99 -176 c54 -98 144
-259 200 -359 l101 -183 123 0 122 0 0 520 0 520 -115 0 -115 0 0 -296 c0
-182 -4 -293 -9 -289 -6 3 -38 56 -71 118 -34 61 -107 192 -163 290 l-100 177
-159 0 -158 0 0 -520z"/>
<path d="M31840 2489 l0 -101 155 4 155 3 0 -422 0 -423 130 0 130 0 0 423 0
422 155 -3 155 -4 0 101 0 101 -440 0 -440 0 0 -101z"/>
<path d="M16006 2562 c-3 -5 1 -9 9 -9 8 0 12 4 9 9 -3 4 -7 8 -9 8 -2 0 -6
-4 -9 -8z"/>
<path d="M20843 2555 c0 -8 4 -12 9 -9 5 3 6 10 3 15 -9 13 -12 11 -12 -6z"/>
<path d="M17520 2526 c0 -2 7 -7 16 -10 8 -3 12 -2 9 4 -6 10 -25 14 -25 6z"/>
<path d="M19445 2500 c-3 -6 1 -7 9 -4 18 7 21 14 7 14 -6 0 -13 -4 -16 -10z"/>
<path d="M18866 2492 c-3 -5 1 -9 9 -9 8 0 12 4 9 9 -3 4 -7 8 -9 8 -2 0 -6
-4 -9 -8z"/>
<path d="M20165 2380 c-3 -6 1 -7 9 -4 18 7 21 14 7 14 -6 0 -13 -4 -16 -10z"/>
<path d="M16136 2333 c-6 -14 -5 -15 5 -6 7 7 10 15 7 18 -3 3 -9 -2 -12 -12z"/>
<path d="M16810 2341 c0 -6 4 -13 10 -16 6 -3 7 1 4 9 -7 18 -14 21 -14 7z"/>
<path d="M21165 2069 c-4 -6 -5 -12 -2 -15 2 -3 7 2 10 11 7 17 1 20 -8 4z"/>
<path d="M16097 2009 c4 -13 8 -18 11 -10 2 7 -1 18 -6 23 -8 8 -9 4 -5 -13z"/>
<path d="M19615 1829 c-4 -6 -5 -12 -2 -15 2 -3 7 2 10 11 7 17 1 20 -8 4z"/>
<path d="M20316 1701 c-4 -5 3 -7 14 -4 23 6 26 13 6 13 -8 0 -17 -4 -20 -9z"/>
<path d="M16340 1581 c0 -6 4 -13 10 -16 6 -3 7 1 4 9 -7 18 -14 21 -14 7z"/>
<path d="M19078 1553 c7 -3 16 -2 19 1 4 3 -2 6 -13 5 -11 0 -14 -3 -6 -6z"/>
</g>
</svg>
